<?xml version="1.0" encoding="utf-8"?>
<!-- Generator: Adobe Illustrator 27.2.0, SVG Export Plug-In . SVG Version: 6.00 Build 0)  -->
<svg version="1.1" id="Layer_1" xmlns="http://www.w3.org/2000/svg" xmlns:xlink="http://www.w3.org/1999/xlink" x="0px" y="0px"
	 viewBox="0 0 20.4 20.4" style="enable-background:new 0 0 20.4 20.4;" xml:space="preserve">
<style type="text/css">
	.st0{fill:#3EB489;}
	.st1{fill:#FFFFFF;}
</style>
<circle class="st0" cx="10.2" cy="10.2" r="10.2"/>
<path class="st1" d="M5.9,5.2h2.5L9,2.4l3.8-1.2l-0.8,4h3.1l-0.6,2.6h-3.1l-1.3,5.9C10,14,9.9,14.5,9.9,15c0,0.8,0.6,1.3,1.4,1.3
	c0.6,0,1.3-0.1,1.7-0.3l-0.6,2.7c-0.6,0.2-1.3,0.4-1.9,0.4c-2.4,0-4.1-0.9-4.1-3.5c0-1.1,0.2-2.1,0.5-3.1l1-4.6H5.3L5.9,5.2z"/>
</svg>
